# xmcd
#
# Track frame offsets: 
#        150
#        18511
#        32620
#        50000
#        63164
#        74078
#        89540
#        113122
#        127257
#        148318
#
# Disc length: 2167 seconds
#
# Revision: 0
# Processed by: cddbd v1.5.2PL0 Copyright (c) Steve Scherf et al.
# Submitted via: ExactAudioCopyFreeDBPlugin 1.0
#
DISCID=9b08750a
DTITLE=Tornado, Johnny - Storm Riders
DYEAR=2009
DGENRE=Blues
TTITLE0=Killin' Me
TTITLE1=Kootenay Trail
TTITLE2=Blues, Sweat And Tears
TTITLE3=Goin' To New Orleans
TTITLE4=Lenny's Blues
TTITLE5=Lonesome Hiway Blues
TTITLE6=Rock And Roll Widow
TTITLE7=Mean And Cruel
TTITLE8=Spellcaster
TTITLE9=Bittersweet Goodbye
EXTD=
EXTT0=
EXTT1=
EXTT2=
EXTT3=
EXTT4=
EXTT5=
EXTT6=
EXTT7=
EXTT8=
EXTT9=
PLAYORDER=
